<?xml version="1.0" encoding="utf-8"?>
<!-- Generator: Adobe Illustrator 21.1.0, SVG Export Plug-In . SVG Version: 6.00 Build 0)  -->
<svg version="1.1" id="Layer_1" xmlns="http://www.w3.org/2000/svg" xmlns:xlink="http://www.w3.org/1999/xlink" x="0px" y="0px"
	 viewBox="0 0 64 64" style="enable-background:new 0 0 64 64;" xml:space="preserve">
<style type="text/css">
	.st0{fill:none;stroke:#E82C25;stroke-width:2;stroke-miterlimit:10;}
	.st1{fill:none;stroke:#E82C25;stroke-width:2;stroke-linejoin:round;stroke-miterlimit:10;}
</style>
<g>
	<g>
		<line class="st0" x1="10" y1="57" x2="4" y2="57"/>
		<path class="st0" d="M10,1h46c1.7,0,3,1.3,3,3v16"/>
		<rect x="35" y="23" class="st0" width="28" height="40"/>
		<rect x="39" y="55" class="st1" width="4" height="4"/>
		<rect x="47" y="55" class="st1" width="4" height="4"/>
		<rect x="55" y="55" class="st1" width="4" height="4"/>
		<rect x="39" y="47" class="st1" width="4" height="4"/>
		<rect x="47" y="47" class="st1" width="4" height="4"/>
		<rect x="55" y="47" class="st1" width="4" height="4"/>
		<rect x="39" y="39" class="st1" width="4" height="4"/>
		<rect x="47" y="39" class="st1" width="4" height="4"/>
		<rect x="55" y="39" class="st1" width="4" height="4"/>
		<line class="st1" x1="38" y1="35" x2="60" y2="35"/>
		<line class="st1" x1="38" y1="27" x2="60" y2="27"/>
		<rect x="19" y="7" class="st1" width="34" height="4"/>
		<line class="st1" x1="19" y1="28" x2="19" y2="48"/>
		<line class="st1" x1="23" y1="34" x2="23" y2="48"/>
		<line class="st1" x1="27" y1="22" x2="27" y2="48"/>
		<line class="st1" x1="31" y1="30" x2="31" y2="48"/>
		<line class="st1" x1="30" y1="15" x2="54" y2="15"/>
		<path class="st1" d="M4,11H1v43c0,1.7,1.3,3,3,3c1.7,0,3-1.3,3-3V4c0-1.7,1.3-3,3-3c1.7,0,3,1.3,3,3v54l3,3l3-3l3,3l3-3l3,3l3-3"
			/>
	</g>
</g>
</svg>
