<?xml version="1.0" encoding="utf-8"?>
<!-- Generator: Adobe Illustrator 21.1.0, SVG Export Plug-In . SVG Version: 6.00 Build 0)  -->
<svg version="1.1" id="Layer_1" xmlns="http://www.w3.org/2000/svg" xmlns:xlink="http://www.w3.org/1999/xlink" x="0px" y="0px"
	 viewBox="0 0 64 64" style="enable-background:new 0 0 64 64;" xml:space="preserve">
<style type="text/css">
	.st0{fill:none;stroke:#E82C25;stroke-width:2;stroke-linejoin:round;stroke-miterlimit:10;}
	.st1{fill:none;stroke:#E82C25;stroke-width:2;stroke-miterlimit:10;}
</style>
<g>
	<g>
		<g>
			<g>
				<line class="st0" x1="53" y1="22" x2="53" y2="28"/>
				<path class="st0" d="M25,28H4c-1.7,0-3-1.3-3-3c0-1.7,1.3-3,3-3h21"/>
				<polyline class="st0" points="41,22 58,22 63,25 58,28 41,28 				"/>
				<line class="st0" x1="11" y1="22" x2="11" y2="28"/>
				<line class="st0" x1="7" y1="22" x2="7" y2="28"/>
			</g>
			<g>
				<path class="st1" d="M38,44v-2l3-10V22c0-1.1-0.9-2-2-2c-1.1,0-2,0.9-2,2v-1c0-1.1-0.9-2-2-2c-1.1,0-2,0.9-2,2v-2
					c0-1.1-0.9-2-2-2c-1.1,0-2,0.9-2,2v2c0-1.1-0.9-2-2-2c-1.1,0-2,0.9-2,2v9"/>
				<line class="st1" x1="29" y1="21" x2="29" y2="23"/>
				<line class="st1" x1="33" y1="21" x2="33" y2="23"/>
				<line class="st1" x1="37" y1="22" x2="37" y2="23"/>
				<polyline class="st1" points="21,28 21,30 21,32 23,36 26,40 26,44 				"/>
			</g>
			<line class="st1" x1="30" y1="48" x2="28" y2="48"/>
			<path class="st0" d="M25,64V45c0-0.6,0.4-1,1-1h12c0.6,0,1,0.4,1,1v19"/>
		</g>
		<path class="st1" d="M17.9,51.1C11,46.8,6.1,39.5,5.2,30.9"/>
		<path class="st1" d="M58.8,31c-0.9,8.4-5.8,15.7-12.6,20"/>
		<path class="st1" d="M6.6,18.8C10.4,8.4,20.3,1,32,1c11.7,0,21.6,7.4,25.4,17.8"/>
	</g>
</g>
</svg>
