<?xml version="1.0" encoding="utf-8"?>
<!-- Generator: Adobe Illustrator 21.1.0, SVG Export Plug-In . SVG Version: 6.00 Build 0)  -->
<svg version="1.1" id="Layer_1" xmlns="http://www.w3.org/2000/svg" xmlns:xlink="http://www.w3.org/1999/xlink" x="0px" y="0px"
	 viewBox="0 0 64 64" style="enable-background:new 0 0 64 64;" xml:space="preserve">
<style type="text/css">
	.st0{fill:none;stroke:#E82C25;stroke-width:2;stroke-miterlimit:10;}
</style>
<g>
	<g>
		<g>
			<g>
				<line class="st0" x1="7" y1="5" x2="7" y2="0"/>
				<path class="st0" d="M21,22v13c0,0.6-0.4,1-1,1H8c-0.6,0-1-0.4-1-1V21"/>
				<line class="st0" x1="21" y1="0" x2="21" y2="6"/>
			</g>
			<g>
				<g>
					<g>
						<path class="st0" d="M28,8h-2L16,5H7C5.9,5,5,5.9,5,7s0.9,2,2,2H5c-1.1,0-2,0.9-2,2s0.9,2,2,2H3c-1.1,0-2,0.9-2,2s0.9,2,2,2h2
							c-1.1,0-2,0.9-2,2s0.9,2,2,2h9"/>
						<line class="st0" x1="5" y1="17" x2="11" y2="17"/>
						<line class="st0" x1="5" y1="13" x2="11" y2="13"/>
						<line class="st0" x1="7" y1="9" x2="11" y2="9"/>
						<path class="st0" d="M10,23c0,1.1,0.9,2,2,2h4l4-2l4-3h4"/>
					</g>
				</g>
				<g>
					<line class="st0" x1="59" y1="7" x2="64" y2="7"/>
					<path class="st0" d="M42,21H29c-0.6,0-1-0.4-1-1V8c0-0.6,0.4-1,1-1h14"/>
					<line class="st0" x1="64" y1="21" x2="58" y2="21"/>
				</g>
			</g>
			<g>
				<g>
					<g>
						<path class="st0" d="M56,28v-2l3-10V7c0-1.1-0.9-2-2-2c-1.1,0-2,0.9-2,2V5c0-1.1-0.9-2-2-2c-1.1,0-2,0.9-2,2V3
							c0-1.1-0.9-2-2-2c-1.1,0-2,0.9-2,2v2c0-1.1-0.9-2-2-2c-1.1,0-2,0.9-2,2v9"/>
						<line class="st0" x1="47" y1="5" x2="47" y2="11"/>
						<line class="st0" x1="51" y1="5" x2="51" y2="11"/>
						<line class="st0" x1="55" y1="7" x2="55" y2="11"/>
						<path class="st0" d="M41,10c-1.1,0-2,0.9-2,2v4l2,4l3,4v4"/>
					</g>
				</g>
				<g>
					<line class="st0" x1="43" y1="58" x2="43" y2="64"/>
					<path class="st0" d="M57,41V29c0-0.6-0.4-1-1-1H44c-0.6,0-1,0.4-1,1v13"/>
					<line class="st0" x1="57" y1="64" x2="57" y2="57"/>
				</g>
			</g>
			<g>
				<g>
					<g>
						<path class="st0" d="M36,44h2l10-3h9c1.1,0,2,0.9,2,2s-0.9,2-2,2h2c1.1,0,2,0.9,2,2s-0.9,2-2,2h2c1.1,0,2,0.9,2,2s-0.9,2-2,2
							h-2c1.1,0,2,0.9,2,2s-0.9,2-2,2h-9"/>
						<line class="st0" x1="59" y1="53" x2="53" y2="53"/>
						<line class="st0" x1="59" y1="49" x2="53" y2="49"/>
						<line class="st0" x1="57" y1="45" x2="53" y2="45"/>
						<path class="st0" d="M54,59c0,1.1-0.9,2-2,2h-4l-4-2l-4-3h-4"/>
					</g>
				</g>
				<g>
					<line class="st0" x1="7" y1="43" x2="0" y2="43"/>
					<path class="st0" d="M21,57h14c0.6,0,1-0.4,1-1V44c0-0.6-0.4-1-1-1H22"/>
					<line class="st0" x1="0" y1="57" x2="5" y2="57"/>
				</g>
			</g>
			<g>
				<g>
					<path class="st0" d="M8,36v2L5,48v9c0,1.1,0.9,2,2,2c1.1,0,2-0.9,2-2v2c0,1.1,0.9,2,2,2c1.1,0,2-0.9,2-2v2c0,1.1,0.9,2,2,2
						c1.1,0,2-0.9,2-2v-2c0,1.1,0.9,2,2,2c1.1,0,2-0.9,2-2v-9"/>
					<line class="st0" x1="17" y1="59" x2="17" y2="53"/>
					<line class="st0" x1="13" y1="59" x2="13" y2="53"/>
					<line class="st0" x1="9" y1="57" x2="9" y2="53"/>
					<path class="st0" d="M23,54c1.1,0,2-0.9,2-2v-4l-2-4l-3-4v-4"/>
				</g>
			</g>
			<line class="st0" x1="7" y1="36" x2="21" y2="36"/>
		</g>
	</g>
</g>
</svg>
