<?xml version="1.0" encoding="utf-8"?>
<!-- Generator: Adobe Illustrator 21.1.0, SVG Export Plug-In . SVG Version: 6.00 Build 0)  -->
<svg version="1.1" id="Layer_1" xmlns="http://www.w3.org/2000/svg" xmlns:xlink="http://www.w3.org/1999/xlink" x="0px" y="0px"
	 viewBox="0 0 52 60" style="enable-background:new 0 0 52 60;" xml:space="preserve">
<style type="text/css">
	.st0{fill:none;stroke:#E9291E;stroke-width:2;stroke-miterlimit:10;}
</style>
<g>
	<g>
		<polyline class="st0" points="36,8 43,8 43,59 1,59 1,8 8,8 		"/>
		<path class="st0" d="M27,6c0-2.8-2.2-5-5-5s-5,2.2-5,5h-6v6h22V6H27z"/>
		<line class="st0" x1="21" y1="6" x2="23" y2="6"/>
		<polyline class="st0" points="39,8 39,55 5,55 5,8 		"/>
		<g>
			<line class="st0" x1="10" y1="26" x2="12" y2="26"/>
			<line class="st0" x1="14" y1="26" x2="34" y2="26"/>
			<line class="st0" x1="10" y1="30" x2="12" y2="30"/>
			<line class="st0" x1="14" y1="30" x2="34" y2="30"/>
			<line class="st0" x1="10" y1="34" x2="12" y2="34"/>
			<line class="st0" x1="14" y1="34" x2="34" y2="34"/>
			<line class="st0" x1="10" y1="38" x2="12" y2="38"/>
			<line class="st0" x1="14" y1="38" x2="34" y2="38"/>
			<line class="st0" x1="10" y1="42" x2="12" y2="42"/>
			<line class="st0" x1="14" y1="42" x2="34" y2="42"/>
		</g>
	</g>
	<g>
		<polygon class="st0" points="51,59 47,59 47,6 48,4 50,4 51,6 		"/>
		<line class="st0" x1="49" y1="4" x2="49" y2="1"/>
		<line class="st0" x1="51" y1="12" x2="47" y2="12"/>
		<line class="st0" x1="51" y1="16" x2="47" y2="16"/>
		<line class="st0" x1="51" y1="20" x2="47" y2="20"/>
		<line class="st0" x1="51" y1="55" x2="47" y2="55"/>
	</g>
</g>
</svg>
