<?xml version="1.0" encoding="utf-8"?>
<!-- Generator: Adobe Illustrator 21.1.0, SVG Export Plug-In . SVG Version: 6.00 Build 0)  -->
<svg version="1.1" id="Layer_1" xmlns="http://www.w3.org/2000/svg" xmlns:xlink="http://www.w3.org/1999/xlink" x="0px" y="0px"
	 viewBox="0 0 60 64" style="enable-background:new 0 0 60 64;" xml:space="preserve">
<style type="text/css">
	.st0{fill:none;stroke:#E9291E;stroke-width:2;stroke-linejoin:round;stroke-miterlimit:10;}
	.st1{fill:none;stroke:#E9291E;stroke-width:2;stroke-miterlimit:10;}
</style>
<g>
	<g>
		<path class="st0" d="M26,19v4c0,2,5,6,5,8v30c0,1.1-0.9,2-2,2H3c-1.1,0-2-0.9-2-2V31c0-2,5-6,5-8v-4"/>
		<path class="st1" d="M29,18c0,0.6-0.4,1-1,1H4c-0.6,0-1-0.4-1-1v-4c0-0.6,0.4-1,1-1h24c0.6,0,1,0.4,1,1V18z"/>
		<line class="st1" x1="6" y1="23" x2="26" y2="23"/>
		<line class="st1" x1="8" y1="13" x2="8" y2="19"/>
		<line class="st1" x1="12" y1="13" x2="12" y2="19"/>
		<line class="st1" x1="20" y1="13" x2="20" y2="19"/>
		<line class="st1" x1="16" y1="13" x2="16" y2="19"/>
		<line class="st1" x1="24" y1="13" x2="24" y2="19"/>
		<polyline class="st1" points="22,33 25,33 25,57 4,57 		"/>
		<line class="st1" x1="1" y1="33" x2="23" y2="33"/>
	</g>
	<path class="st1" d="M29,10V3c0-1.1,0.9-2,2-2h26c1.1,0,2,0.9,2,2v58c0,1.1-0.9,2-2,2H34"/>
	<circle class="st1" cx="50" cy="10" r="3"/>
	<circle class="st1" cx="50" cy="21" r="3"/>
	<circle class="st1" cx="50" cy="32" r="3"/>
	<circle class="st1" cx="50" cy="43" r="3"/>
	<circle class="st1" cx="50" cy="54" r="3"/>
	<circle class="st1" cx="38" cy="10" r="3"/>
	<circle class="st1" cx="38" cy="21" r="3"/>
	<circle class="st1" cx="38" cy="32" r="3"/>
	<circle class="st1" cx="38" cy="43" r="3"/>
	<circle class="st1" cx="38" cy="54" r="3"/>
</g>
</svg>
