<?xml version="1.0" encoding="utf-8"?>
<!-- Generator: Adobe Illustrator 21.1.0, SVG Export Plug-In . SVG Version: 6.00 Build 0)  -->
<svg version="1.1" id="Layer_1" xmlns="http://www.w3.org/2000/svg" xmlns:xlink="http://www.w3.org/1999/xlink" x="0px" y="0px"
	 viewBox="0 0 64 64" style="enable-background:new 0 0 64 64;" xml:space="preserve">
<style type="text/css">
	.st0{fill:none;stroke:#E9291E;stroke-width:2;stroke-linejoin:round;stroke-miterlimit:10;}
</style>
<g>
	<g>
		<g>
			<line class="st0" x1="43" y1="57" x2="24" y2="57"/>
			<line class="st0" x1="22" y1="53" x2="45" y2="53"/>
			<path class="st0" d="M12,57c-5,0-9-4-9-9s4-9,9-9h43c0,2.2-1.8,4-4,4H12c-2.8,0-5,2.2-5,5s2.2,5,5,5h2"/>
			<g>
				<circle class="st0" cx="49" cy="57" r="6"/>
			</g>
			<g>
				<circle class="st0" cx="18" cy="57" r="6"/>
			</g>
			<polyline class="st0" points="15,17 63,17 55,39 12,39 12,17 			"/>
			<path class="st0" d="M5,5c1.7,0,3,1.3,3,3v32"/>
			<path class="st0" d="M9,5c1.7,0,3,1.3,3,3v9"/>
			<line class="st0" x1="0" y1="5" x2="9" y2="5"/>
			<line class="st0" x1="0" y1="63" x2="64" y2="63"/>
			<path class="st0" d="M56,23c-2.1,0-1.9,2-4,2s-1.9-2-4-2s-1.9,2-4,2s-1.9-2-4-2s-1.9,2-4,2s-1.9-2-4-2s-1.9,2-4,2s-1.9-2-4-2
				s-1.9,2-4,2s-1.9-2-4-2"/>
			<path class="st0" d="M52,33c-2.1,0-1.9-2-4-2s-1.9,2-4,2s-1.9-2-4-2s-1.9,2-4,2s-1.9-2-4-2s-1.9,2-4,2s-1.9-2-4-2s-1.9,2-4,2
				s-1.9-2-4-2"/>
		</g>
		<circle class="st0" cx="18" cy="57" r="1"/>
		<circle class="st0" cx="49" cy="57" r="1"/>
		<polyline class="st0" points="20,14 20,9 46,9 46,14 		"/>
		<polyline class="st0" points="35,6 35,1 53,1 53,14 		"/>
		<rect x="42" y="1" class="st0" width="4" height="4"/>
	</g>
</g>
</svg>
