<?xml version="1.0" encoding="utf-8"?>
<!-- Generator: Adobe Illustrator 21.1.0, SVG Export Plug-In . SVG Version: 6.00 Build 0)  -->
<svg version="1.1" id="Layer_1" xmlns="http://www.w3.org/2000/svg" xmlns:xlink="http://www.w3.org/1999/xlink" x="0px" y="0px"
	 viewBox="0 0 64 64" style="enable-background:new 0 0 64 64;" xml:space="preserve">
<style type="text/css">
	.st0{fill:none;stroke:#E82C25;stroke-width:2;stroke-miterlimit:10;}
</style>
<g>
	<g>
		<g>
			<path class="st0" d="M32,1v62C14.9,63,1,49.1,1,32S14.9,1,32,1z"/>
			<line class="st0" x1="29" y1="17" x2="5" y2="17"/>
			<line class="st0" x1="29" y1="47" x2="5" y2="47"/>
			<line class="st0" x1="29" y1="32" x2="1" y2="32"/>
			<path class="st0" d="M35,63c2-0.2,3.4-0.6,5.2-1.1l0.3-4.3c0.5-0.2,1-0.3,1.4-0.5l2.9,3.1c1.8-0.8,3.5-1.8,5.1-2.9l-1.2-4.1
				c0.4-0.3,0.8-0.6,1.2-1l3.8,1.9c1.4-1.4,2.7-2.9,3.8-4.5L55,46.2c0.3-0.4,0.5-0.9,0.8-1.3l4.2,0.5c0.8-1.7,1.5-3.6,2-5.5
				l-3.6-2.4c0.1-0.5,0.2-1,0.3-1.5l4.1-1C62.9,34,63,33,63,32s-0.1-2-0.1-2.9l-4.1-1c-0.1-0.5-0.2-1-0.3-1.5l3.6-2.4
				c-0.5-1.9-1.2-3.8-2-5.5l-4.2,0.5c-0.2-0.5-0.5-0.9-0.8-1.3l2.5-3.4c-1.1-1.6-2.4-3.1-3.8-4.5l-3.8,1.9c-0.4-0.3-0.8-0.7-1.2-1
				L50,6.7c-1.6-1.1-3.3-2.1-5.1-2.9l-2.9,3.1c-0.5-0.2-1-0.4-1.4-0.5l-0.3-4.3C38.4,1.6,37,1.2,35,1"/>
			<path class="st0" d="M35,47c1.3-0.2,2.3-0.9,3.4-1.4l-0.1-3.4c0.5-0.3,1-0.7,1.5-1.1l3.2,1.1c0.9-0.9,1.6-1.9,2.2-3l-2-2.7
				c0.2-0.6,0.4-1.1,0.6-1.7l3.2-0.9c0.1-0.6,0.1-1.2,0.1-1.9c0-0.6-0.1-1.3-0.1-1.9l-3.2-0.9c-0.1-0.6-0.3-1.2-0.6-1.7l2-2.7
				c-0.6-1.1-1.4-2.1-2.2-3l-3.2,1.1c-0.5-0.4-1-0.7-1.5-1.1l0.1-3.4c-1.1-0.5-2.1-1.2-3.4-1.4"/>
			<path class="st0" d="M32,63c-6.1,0-11-13.9-11-31S25.9,1,32,1"/>
			<path class="st0" d="M32,63c-12.2,0-22-13.9-22-31S19.8,1,32,1"/>
			<path class="st0" d="M32,25c3.9,0,7,3.1,7,7s-3.1,7-7,7"/>
			<path class="st0" d="M32,11c11.6,0,21,9.4,21,21s-9.4,21-21,21"/>
		</g>
	</g>
</g>
</svg>
