<?xml version="1.0" encoding="utf-8"?>
<!-- Generator: Adobe Illustrator 21.1.0, SVG Export Plug-In . SVG Version: 6.00 Build 0)  -->
<svg version="1.1" id="Layer_1" xmlns="http://www.w3.org/2000/svg" xmlns:xlink="http://www.w3.org/1999/xlink" x="0px" y="0px"
	 viewBox="0 0 64 64" style="enable-background:new 0 0 64 64;" xml:space="preserve">
<style type="text/css">
	.st0{fill:none;stroke:#E82C25;stroke-width:2;stroke-linejoin:round;stroke-miterlimit:10;}
</style>
<g>
	<g>
		<g>
			<line class="st0" x1="36" y1="24" x2="50" y2="24"/>
			<line class="st0" x1="14" y1="40" x2="28" y2="40"/>
			<polyline class="st0" points="15,44 15,52 1,38 15,24 15,32 49,32 49,40 63,26 49,12 49,20 			"/>
			<path class="st0" d="M15,56v2l0-0.1c4.9,3.2,10.7,5.1,17,5.1c17.1,0,31-13.9,31-31"/>
			<path class="st0" d="M49,8V6l0,0.1C44.1,2.9,38.3,1,32,1C14.9,1,1,14.9,1,32"/>
		</g>
	</g>
</g>
</svg>
