<?xml version="1.0" encoding="utf-8"?>
<!-- Generator: Adobe Illustrator 21.1.0, SVG Export Plug-In . SVG Version: 6.00 Build 0)  -->
<svg version="1.1" id="Layer_1" xmlns="http://www.w3.org/2000/svg" xmlns:xlink="http://www.w3.org/1999/xlink" x="0px" y="0px"
	 viewBox="0 0 64 62" style="enable-background:new 0 0 64 62;" xml:space="preserve">
<style type="text/css">
	.st0{fill:none;stroke:#E9291E;stroke-width:2;stroke-miterlimit:10;}
</style>
<g>
	<line class="st0" x1="4" y1="47" x2="26" y2="47"/>
	<line class="st0" x1="4" y1="43" x2="14" y2="43"/>
	<line class="st0" x1="16" y1="43" x2="26" y2="43"/>
	<line class="st0" x1="4" y1="39" x2="14" y2="39"/>
	<line class="st0" x1="16" y1="39" x2="26" y2="39"/>
	<line class="st0" x1="4" y1="35" x2="14" y2="35"/>
	<line class="st0" x1="16" y1="35" x2="26" y2="35"/>
	<line class="st0" x1="4" y1="31" x2="14" y2="31"/>
	<line class="st0" x1="16" y1="31" x2="26" y2="31"/>
	<line class="st0" x1="4" y1="27" x2="26" y2="27"/>
	<line class="st0" x1="4" y1="23" x2="14" y2="23"/>
	<line class="st0" x1="16" y1="23" x2="26" y2="23"/>
	<line class="st0" x1="4" y1="19" x2="14" y2="19"/>
	<line class="st0" x1="16" y1="19" x2="26" y2="19"/>
	<polyline class="st0" points="41,19 63,19 63,61 59,61 	"/>
	<line class="st0" x1="29" y1="19" x2="41" y2="19"/>
	<rect x="5" y="51" class="st0" width="54" height="10"/>
	<line class="st0" x1="19" y1="54" x2="19" y2="61"/>
	<line class="st0" x1="45" y1="54" x2="45" y2="61"/>
	<line class="st0" x1="5" y1="57" x2="59" y2="57"/>
	<rect x="33" y="23" class="st0" width="6" height="4"/>
	<rect x="43" y="23" class="st0" width="6" height="4"/>
	<rect x="53" y="23" class="st0" width="6" height="4"/>
	<rect x="33" y="31" class="st0" width="6" height="4"/>
	<rect x="43" y="31" class="st0" width="6" height="4"/>
	<rect x="53" y="31" class="st0" width="6" height="4"/>
	<rect x="33" y="39" class="st0" width="6" height="4"/>
	<rect x="43" y="39" class="st0" width="6" height="4"/>
	<rect x="53" y="39" class="st0" width="6" height="4"/>
	<line class="st0" x1="63" y1="47" x2="32" y2="47"/>
	<polyline class="st0" points="5,61 1,61 1,5 29,5 29,48 	"/>
	<rect x="3" y="1" class="st0" width="24" height="4"/>
</g>
</svg>
