<svg xmlns="http://www.w3.org/2000/svg" width="20" height="20" viewBox="0 0 20 20">
  <path fill="#5B6872" fill-opacity=".3" fill-rule="evenodd" d="M482,241 C476.485833,241 472,236.514167 472,231 C472,225.485833 476.485833,221 482,221 C487.514167,221 492,225.485833 492,231 C492,236.514167 487.514167,241 482,241 Z M482,222.666667 C477.405,222.666667 473.666667,226.405 473.666667,231 C473.666667,235.595 477.405,239.333333 482,239.333333 C486.595,239.333333 490.333333,235.595 490.333333,231 C490.333333,226.405 486.595,222.666667 482,222.666667 Z M483.990833,231.286667 C482.7825,232.265 482.828333,233.345833 482.830833,233.391667 C482.844094,233.621467 482.762378,233.846626 482.604816,234.01443 C482.447253,234.182234 482.227679,234.277949 481.9975,234.279167 C481.567935,234.28173 481.208138,233.954543 481.17,233.526667 C481.163333,233.446667 481.0175,231.548333 482.941667,229.990833 C483.4775,229.5575 483.666667,229.179167 483.666667,228.5425 C483.666667,227.574167 482.919167,226.785833 482,226.785833 C481.05,226.785833 480.333333,227.5025 480.333333,228.4525 C480.333333,228.912737 479.960237,229.285833 479.5,229.285833 C479.039763,229.285833 478.666667,228.912737 478.666667,228.4525 C478.666667,226.583333 480.130833,225.119167 482,225.119167 C483.838333,225.119167 485.333333,226.655 485.333333,228.5425 C485.333333,229.688333 484.919167,230.534167 483.990833,231.286667 Z M482.1375,235.155 C482.590833,235.233333 482.899167,235.640833 482.820833,236.094167 L482.813333,236.141667 C482.734502,236.595002 482.30347,236.898887 481.85,236.820833 C481.632243,236.783377 481.438308,236.66089 481.310918,236.480355 C481.183527,236.29982 481.133132,236.076048 481.170833,235.858333 C481.249167,235.404167 481.683333,235.074167 482.1375,235.155 Z" transform="translate(-472 -221)"/>
</svg>
