<?xml version="1.0" encoding="UTF-8"?>
<svg width="45px" height="35px" viewBox="0 0 45 35" version="1.1" xmlns="http://www.w3.org/2000/svg" xmlns:xlink="http://www.w3.org/1999/xlink">
    <!-- Generator: Sketch 52.2 (67145) - http://www.bohemiancoding.com/sketch -->
    <title>Group 8</title>
    <desc>Created with Sketch.</desc>
    <g id="Option-02" stroke="none" stroke-width="1" fill="none" fill-rule="evenodd">
        <g id="01" transform="translate(-1254.000000, -203.000000)" stroke="#707070">
            <g id="Group-8" transform="translate(1254.000000, 203.000000)">
                <rect id="Rectangle-5" fill="#FFFFFF" x="0.5" y="0.5" width="44" height="34" rx="10"></rect>
                <g id="Group-" transform="translate(11.000000, 12.000000)" stroke-linecap="round" stroke-linejoin="round" stroke-width="2">
                    <path d="M24,4 L22,4" id="Shape" transform="translate(23.000000, 4.500000) scale(-1, 1) translate(-23.000000, -4.500000) "></path>
                    <path d="M24,0 L22,0" id="Shape" transform="translate(23.000000, 0.500000) scale(-1, 1) translate(-23.000000, -0.500000) "></path>
                    <path d="M24,8 L22,8" id="Shape" transform="translate(23.000000, 8.500000) scale(-1, 1) translate(-23.000000, -8.500000) "></path>
                    <path d="M24,12 L22,12" id="Shape" transform="translate(23.000000, 12.500000) scale(-1, 1) translate(-23.000000, -12.500000) "></path>
                    <path d="M18,4 L0,4" id="Shape" transform="translate(9.000000, 4.500000) scale(-1, 1) translate(-9.000000, -4.500000) "></path>
                    <path d="M18,0 L0,0" id="Shape" transform="translate(9.000000, 0.500000) scale(-1, 1) translate(-9.000000, -0.500000) "></path>
                    <path d="M18,8 L0,8" id="Shape" transform="translate(9.000000, 8.500000) scale(-1, 1) translate(-9.000000, -8.500000) "></path>
                    <path d="M18,12 L0,12" id="Shape" transform="translate(9.000000, 12.500000) scale(-1, 1) translate(-9.000000, -12.500000) "></path>
                </g>
            </g>
        </g>
    </g>
</svg>